<svg width="30" height="30" viewBox="0 0 30 30" fill="none" xmlns="http://www.w3.org/2000/svg">
<g clip-path="url(#clip0_1761_4508)">
<path d="M5.76942 21.7695H2.6925C2.03965 21.7695 1.41355 22.0289 0.951925 22.4905C0.490297 22.9521 0.230957 23.5782 0.230957 24.2311L0.230957 27.308C0.230957 27.9608 0.490297 28.5869 0.951925 29.0485C1.41355 29.5102 2.03965 29.7695 2.6925 29.7695H5.76942C6.42226 29.7695 7.04836 29.5102 7.50999 29.0485C7.97162 28.5869 8.23096 27.9608 8.23096 27.308V24.2311C8.23096 23.5782 7.97162 22.9521 7.50999 22.4905C7.04836 22.0289 6.42226 21.7695 5.76942 21.7695ZM5.76942 27.308H2.6925V24.2311H5.76942V27.308Z" fill="#383634"/>
<path d="M27.308 21.7695H24.2311C23.5782 21.7695 22.9521 22.0289 22.4905 22.4905C22.0289 22.9521 21.7695 23.5782 21.7695 24.2311V27.308C21.7695 27.9608 22.0289 28.5869 22.4905 29.0485C22.9521 29.5102 23.5782 29.7695 24.2311 29.7695H27.308C27.9608 29.7695 28.5869 29.5102 29.0485 29.0485C29.5102 28.5869 29.7695 27.9608 29.7695 27.308V24.2311C29.7695 23.5782 29.5102 22.9521 29.0485 22.4905C28.5869 22.0289 27.9608 21.7695 27.308 21.7695ZM27.308 27.308H24.2311V24.2311H27.308V27.308Z" fill="#383634"/>
<path d="M5.76942 10.9995H2.6925C2.03965 10.9995 1.41355 11.2589 0.951925 11.7205C0.490297 12.1821 0.230957 12.8082 0.230957 13.461L0.230957 16.538C0.230957 17.1908 0.490297 17.8169 0.951925 18.2785C1.41355 18.7402 2.03965 18.9995 2.6925 18.9995H5.76942C6.42226 18.9995 7.04836 18.7402 7.50999 18.2785C7.97162 17.8169 8.23096 17.1908 8.23096 16.538V13.461C8.23096 12.8082 7.97162 12.1821 7.50999 11.7205C7.04836 11.2589 6.42226 10.9995 5.76942 10.9995ZM5.76942 16.538H2.6925V13.461H5.76942V16.538Z" fill="#383634"/>
<path d="M27.308 10.9995H24.2311C23.5782 10.9995 22.9521 11.2589 22.4905 11.7205C22.0289 12.1821 21.7695 12.8082 21.7695 13.461V16.538C21.7695 17.1908 22.0289 17.8169 22.4905 18.2785C22.9521 18.7402 23.5782 18.9995 24.2311 18.9995H27.308C27.9608 18.9995 28.5869 18.7402 29.0485 18.2785C29.5102 17.8169 29.7695 17.1908 29.7695 16.538V13.461C29.7695 12.8082 29.5102 12.1821 29.0485 11.7205C28.5869 11.2589 27.9608 10.9995 27.308 10.9995ZM27.308 16.538H24.2311V13.461H27.308V16.538Z" fill="#383634"/>
<path d="M5.76942 0.230713H2.6925C2.03965 0.230713 1.41355 0.490053 0.951925 0.951681C0.490297 1.41331 0.230957 2.03941 0.230957 2.69225L0.230957 5.76917C0.230957 6.42202 0.490297 7.04812 0.951925 7.50975C1.41355 7.97137 2.03965 8.23071 2.6925 8.23071H5.76942C6.42226 8.23071 7.04836 7.97137 7.50999 7.50975C7.97162 7.04812 8.23096 6.42202 8.23096 5.76917V2.69225C8.23096 2.03941 7.97162 1.41331 7.50999 0.951681C7.04836 0.490053 6.42226 0.230713 5.76942 0.230713V0.230713ZM5.76942 5.76917H2.6925V2.69225H5.76942V5.76917Z" fill="#383634"/>
<path d="M16.5385 21.7695H13.4615C12.8087 21.7695 12.1826 22.0289 11.721 22.4905C11.2593 22.9521 11 23.5782 11 24.2311V27.308C11 27.9608 11.2593 28.5869 11.721 29.0485C12.1826 29.5102 12.8087 29.7695 13.4615 29.7695H16.5385C17.1913 29.7695 17.8174 29.5102 18.279 29.0485C18.7406 28.5869 19 27.9608 19 27.308V24.2311C19 23.5782 18.7406 22.9521 18.279 22.4905C17.8174 22.0289 17.1913 21.7695 16.5385 21.7695ZM16.5385 27.308H13.4615V24.2311H16.5385V27.308Z" fill="#383634"/>
<path d="M16.5385 10.9995H13.4615C12.8087 10.9995 12.1826 11.2589 11.721 11.7205C11.2593 12.1821 11 12.8082 11 13.461V16.538C11 17.1908 11.2593 17.8169 11.721 18.2785C12.1826 18.7402 12.8087 18.9995 13.4615 18.9995H16.5385C17.1913 18.9995 17.8174 18.7402 18.279 18.2785C18.7406 17.8169 19 17.1908 19 16.538V13.461C19 12.8082 18.7406 12.1821 18.279 11.7205C17.8174 11.2589 17.1913 10.9995 16.5385 10.9995ZM16.5385 16.538H13.4615V13.461H16.5385V16.538Z" fill="#383634"/>
<path d="M16.5385 0.230713H13.4615C12.8087 0.230713 12.1826 0.490053 11.721 0.951681C11.2593 1.41331 11 2.03941 11 2.69225V5.76917C11 6.42202 11.2593 7.04812 11.721 7.50975C12.1826 7.97137 12.8087 8.23071 13.4615 8.23071H16.5385C17.1913 8.23071 17.8174 7.97137 18.279 7.50975C18.7406 7.04812 19 6.42202 19 5.76917V2.69225C19 2.03941 18.7406 1.41331 18.279 0.951681C17.8174 0.490053 17.1913 0.230713 16.5385 0.230713V0.230713ZM16.5385 5.76917H13.4615V2.69225H16.5385V5.76917Z" fill="#383634"/>
<path d="M27.308 0.230713H24.2311C23.5782 0.230713 22.9521 0.490053 22.4905 0.951681C22.0289 1.41331 21.7695 2.03941 21.7695 2.69225V5.76917C21.7695 6.42202 22.0289 7.04812 22.4905 7.50975C22.9521 7.97137 23.5782 8.23071 24.2311 8.23071H27.308C27.9608 8.23071 28.5869 7.97137 29.0485 7.50975C29.5102 7.04812 29.7695 6.42202 29.7695 5.76917V2.69225C29.7695 2.03941 29.5102 1.41331 29.0485 0.951681C28.5869 0.490053 27.9608 0.230713 27.308 0.230713V0.230713ZM27.308 5.76917H24.2311V2.69225H27.308V5.76917Z" fill="#383634"/>
</g>
<defs>
<clipPath id="clip0_1761_4508">
<rect width="29.5385" height="29.5385" fill="white" transform="translate(0.230957 0.230713)"/>
</clipPath>
</defs>
</svg>
